<?xml version="1.0" encoding="iso-8859-1"?>
<!-- Generator: Adobe Illustrator 19.0.0, SVG Export Plug-In . SVG Version: 6.00 Build 0)  -->
<svg version="1.1" id="Layer_1" xmlns="http://www.w3.org/2000/svg" xmlns:xlink="http://www.w3.org/1999/xlink" x="0px" y="0px"
	 viewBox="0 0 512 512" style="enable-background:new 0 0 512 512;" xml:space="preserve">
<circle style="fill:#FAD24D;" cx="256" cy="256" r="256"/>
<ellipse style="fill:#EDB937;" cx="256.539" cy="464.932" rx="119.846" ry="9.449"/>
<path style="fill:#ECF0F1;" d="M140.323,126.746c0.417,0,0.834,0.011,1.249,0.029c6.156-17.214,22.597-29.527,41.926-29.527
	c5.149,0,10.096,0.876,14.694,2.486c5.183-36.869,36.848-65.24,75.146-65.24c40.389,0,73.41,31.554,75.755,71.359
	c21.54,0.773,38.757,18.471,38.757,40.197c0,22.22-18.01,40.226-40.226,40.226c-71.259,0-136.447,0-207.301,0
	c-16.444,0-29.769-13.325-29.769-29.766S123.882,126.746,140.323,126.746z"/>
<path style="fill:#FFFFFF;" d="M138.662,122.77c0.42,0,0.836,0.011,1.249,0.026c6.154-17.212,22.6-29.527,41.926-29.527
	c5.149,0,10.096,0.878,14.694,2.486c5.181-36.866,36.848-65.24,75.144-65.24c40.389,0,73.413,31.557,75.755,71.359
	c21.54,0.773,38.757,18.471,38.757,40.197c0,22.22-18.007,40.226-40.226,40.226c-71.259,0-136.447,0-207.301,0
	c-16.441,0-29.766-13.325-29.766-29.766c0-16.444,13.325-29.766,29.766-29.766L138.662,122.77z"/>
<path style="fill:#666666;" d="M126.234,226.074h259.481c8.524,0,15.5,6.974,15.5,15.5v159.843h-290.48V241.573
	C110.736,233.049,117.71,226.074,126.234,226.074z"/>
<path style="fill:#0E7886;" d="M121.261,390.891h269.43V241.573c0-2.715-2.259-4.973-4.976-4.973h-259.48
	c-2.715,0-4.973,2.259-4.973,4.973V390.891z"/>
<path style="fill:#FFFFFF;" d="M401.214,401.417v16.95c0,8.527-7.688,15.5-17.087,15.5H127.824c-9.399,0-17.087-6.974-17.087-15.5
	v-16.95h290.48H401.214z"/>
<circle style="fill:#B6B6B8;" cx="255.98" cy="416.966" r="5.336"/>
<path style="fill:#C2C2C4;" d="M289.478,458.249l24.646,7.896H197.83l19.885-7.896v-24.383h71.763V458.249z"/>
<path style="fill:#ECF0F1;" d="M217.715,458.249h71.763l24.646,7.896v3.402h-58.146h-58.146v-3.402L217.715,458.249z"/>
<path style="fill:#919191;" d="M217.715,433.866h71.763v24.383L217.715,433.866z"/>
<path style="fill:#FF5B62;" d="M235.155,267.94c-21.666-20.766-20.331-49.58-20.525-67.629h24.704L199.9,146.442l-39.432,53.869
	h24.704C187.707,237.227,207.136,259.41,235.155,267.94z"/>
<path style="fill:#21D0C3;" d="M274.679,146.442c21.666,20.766,20.331,49.58,20.525,67.629H270.5l39.434,53.871l39.432-53.871
	h-24.704C322.126,177.155,302.698,154.972,274.679,146.442z"/>
<g>
</g>
<g>
</g>
<g>
</g>
<g>
</g>
<g>
</g>
<g>
</g>
<g>
</g>
<g>
</g>
<g>
</g>
<g>
</g>
<g>
</g>
<g>
</g>
<g>
</g>
<g>
</g>
<g>
</g>
</svg>
